<mxfile host="app.diagrams.net" agent="Mozilla/5.0 (Windows NT 10.0; Win64; x64) AppleWebKit/537.36 (KHTML, like Gecko) Chrome/128.0.0.0 Safari/537.36" version="24.7.16">
  <diagram id="C5RBs43oDa-KdzZeNtuy" name="Page-1">
    <mxGraphModel dx="1122" dy="696" grid="1" gridSize="10" guides="1" tooltips="1" connect="1" arrows="1" fold="1" page="1" pageScale="1" pageWidth="827" pageHeight="1169" math="0" shadow="0">
      <root>
        <mxCell id="WIyWlLk6GJQsqaUBKTNV-0" />
        <mxCell id="WIyWlLk6GJQsqaUBKTNV-1" parent="WIyWlLk6GJQsqaUBKTNV-0" />
        <mxCell id="Z2ELihAoB1qGX9_mnctW-9" value="&lt;h3&gt;New AnimationInstance Module&lt;/h3&gt;" style="shape=module;align=left;spacingLeft=20;align=center;verticalAlign=top;whiteSpace=wrap;html=1;" vertex="1" parent="WIyWlLk6GJQsqaUBKTNV-1">
          <mxGeometry x="180" y="240" width="570" height="400" as="geometry" />
        </mxCell>
        <mxCell id="Z2ELihAoB1qGX9_mnctW-6" value="&lt;h3&gt;Messiah::Animation&lt;/h3&gt;" style="shape=module;align=left;spacingLeft=20;align=center;verticalAlign=top;whiteSpace=wrap;html=1;" vertex="1" parent="WIyWlLk6GJQsqaUBKTNV-1">
          <mxGeometry x="180" y="810" width="590" height="320" as="geometry" />
        </mxCell>
        <mxCell id="Z2ELihAoB1qGX9_mnctW-5" value="&lt;p style=&quot;margin:0px;margin-top:4px;text-align:center;&quot;&gt;&lt;b&gt;KeyFrameAnimationImp&lt;/b&gt;&lt;/p&gt;" style="verticalAlign=top;align=left;overflow=fill;html=1;whiteSpace=wrap;" vertex="1" parent="WIyWlLk6GJQsqaUBKTNV-1">
          <mxGeometry x="280" y="870" width="140" height="60" as="geometry" />
        </mxCell>
        <mxCell id="Z2ELihAoB1qGX9_mnctW-7" value="&lt;p style=&quot;margin:0px;margin-top:4px;text-align:center;&quot;&gt;&lt;b&gt;Skeleton&lt;/b&gt;&lt;/p&gt;" style="verticalAlign=top;align=left;overflow=fill;html=1;whiteSpace=wrap;" vertex="1" parent="WIyWlLk6GJQsqaUBKTNV-1">
          <mxGeometry x="280" y="970" width="140" height="60" as="geometry" />
        </mxCell>
        <mxCell id="Z2ELihAoB1qGX9_mnctW-8" value="&lt;p style=&quot;margin:0px;margin-top:4px;text-align:center;&quot;&gt;&lt;b&gt;RunTimeSkeleton&lt;/b&gt;&lt;/p&gt;" style="verticalAlign=top;align=left;overflow=fill;html=1;whiteSpace=wrap;" vertex="1" parent="WIyWlLk6GJQsqaUBKTNV-1">
          <mxGeometry x="550" y="870" width="140" height="60" as="geometry" />
        </mxCell>
        <mxCell id="Z2ELihAoB1qGX9_mnctW-12" value="&lt;p style=&quot;margin:0px;margin-top:4px;text-align:center;&quot;&gt;&lt;b&gt;AnimationCollection&lt;/b&gt;&lt;/p&gt;" style="verticalAlign=top;align=left;overflow=fill;html=1;whiteSpace=wrap;" vertex="1" parent="WIyWlLk6GJQsqaUBKTNV-1">
          <mxGeometry x="210" y="440" width="140" height="60" as="geometry" />
        </mxCell>
        <mxCell id="Z2ELihAoB1qGX9_mnctW-17" style="edgeStyle=orthogonalEdgeStyle;rounded=0;orthogonalLoop=1;jettySize=auto;html=1;exitX=0.5;exitY=1;exitDx=0;exitDy=0;" edge="1" parent="WIyWlLk6GJQsqaUBKTNV-1" source="Z2ELihAoB1qGX9_mnctW-13" target="Z2ELihAoB1qGX9_mnctW-14">
          <mxGeometry relative="1" as="geometry" />
        </mxCell>
        <mxCell id="Z2ELihAoB1qGX9_mnctW-18" style="edgeStyle=orthogonalEdgeStyle;rounded=0;orthogonalLoop=1;jettySize=auto;html=1;" edge="1" parent="WIyWlLk6GJQsqaUBKTNV-1" source="Z2ELihAoB1qGX9_mnctW-13" target="Z2ELihAoB1qGX9_mnctW-12">
          <mxGeometry relative="1" as="geometry" />
        </mxCell>
        <mxCell id="Z2ELihAoB1qGX9_mnctW-13" value="&lt;p style=&quot;margin:0px;margin-top:4px;text-align:center;&quot;&gt;&lt;b&gt;AnimationInstanceComponent&lt;/b&gt;&lt;/p&gt;" style="verticalAlign=top;align=left;overflow=fill;html=1;whiteSpace=wrap;" vertex="1" parent="WIyWlLk6GJQsqaUBKTNV-1">
          <mxGeometry x="387" y="320" width="200" height="60" as="geometry" />
        </mxCell>
        <mxCell id="Z2ELihAoB1qGX9_mnctW-16" value="" style="edgeStyle=orthogonalEdgeStyle;rounded=0;orthogonalLoop=1;jettySize=auto;html=1;" edge="1" parent="WIyWlLk6GJQsqaUBKTNV-1" source="Z2ELihAoB1qGX9_mnctW-14" target="Z2ELihAoB1qGX9_mnctW-15">
          <mxGeometry relative="1" as="geometry" />
        </mxCell>
        <mxCell id="Z2ELihAoB1qGX9_mnctW-21" style="edgeStyle=orthogonalEdgeStyle;rounded=0;orthogonalLoop=1;jettySize=auto;html=1;entryX=0.5;entryY=0;entryDx=0;entryDy=0;" edge="1" parent="WIyWlLk6GJQsqaUBKTNV-1" source="Z2ELihAoB1qGX9_mnctW-14" target="Z2ELihAoB1qGX9_mnctW-20">
          <mxGeometry relative="1" as="geometry" />
        </mxCell>
        <mxCell id="Z2ELihAoB1qGX9_mnctW-14" value="&lt;p style=&quot;margin:0px;margin-top:4px;text-align:center;&quot;&gt;&lt;b&gt;AnimationInstanceRenderer&lt;/b&gt;&lt;/p&gt;" style="verticalAlign=top;align=left;overflow=fill;html=1;whiteSpace=wrap;" vertex="1" parent="WIyWlLk6GJQsqaUBKTNV-1">
          <mxGeometry x="399" y="440" width="176" height="60" as="geometry" />
        </mxCell>
        <mxCell id="Z2ELihAoB1qGX9_mnctW-15" value="&lt;p style=&quot;margin:0px;margin-top:4px;text-align:center;&quot;&gt;&lt;b&gt;AnimationInstanceRenderResource&lt;/b&gt;&lt;/p&gt;" style="verticalAlign=top;align=left;overflow=fill;html=1;whiteSpace=wrap;" vertex="1" parent="WIyWlLk6GJQsqaUBKTNV-1">
          <mxGeometry x="382" y="540" width="210" height="60" as="geometry" />
        </mxCell>
        <mxCell id="Z2ELihAoB1qGX9_mnctW-19" style="edgeStyle=orthogonalEdgeStyle;rounded=0;orthogonalLoop=1;jettySize=auto;html=1;" edge="1" parent="WIyWlLk6GJQsqaUBKTNV-1" source="Z2ELihAoB1qGX9_mnctW-12">
          <mxGeometry relative="1" as="geometry">
            <mxPoint x="184" y="940" as="targetPoint" />
            <Array as="points">
              <mxPoint x="110" y="470" />
              <mxPoint x="110" y="940" />
            </Array>
          </mxGeometry>
        </mxCell>
        <mxCell id="Z2ELihAoB1qGX9_mnctW-20" value="&lt;h3&gt;Messiah:Render&lt;/h3&gt;" style="shape=module;align=left;spacingLeft=20;align=center;verticalAlign=top;whiteSpace=wrap;html=1;" vertex="1" parent="WIyWlLk6GJQsqaUBKTNV-1">
          <mxGeometry x="920" y="800" width="590" height="310" as="geometry" />
        </mxCell>
      </root>
    </mxGraphModel>
  </diagram>
</mxfile>
